<?xml version="1.0" standalone="no"?>
<!DOCTYPE svg PUBLIC "-//W3C//DTD SVG 20010904//EN"
 "http://www.w3.org/TR/2001/REC-SVG-20010904/DTD/svg10.dtd">
<svg version="1.0" xmlns="http://www.w3.org/2000/svg"
 width="592.000000pt" height="592.000000pt" viewBox="0 0 592.000000 592.000000"
 preserveAspectRatio="xMidYMid meet">
<metadata>
Created by potrace 1.14, written by Peter Selinger 2001-2017
</metadata>
<g transform="translate(0.000000,592.000000) scale(0.100000,-0.100000)"
fill="#000000" stroke="none">
<path d="M653 5408 c-115 -39 -182 -109 -208 -218 -3 -11 -18 -169 -21 -220
-23 -366 -23 -3657 1 -3995 16 -228 29 -274 104 -345 128 -122 297 -122 421 1
96 95 115 155 137 419 2 30 6 699 9 1485 3 787 6 1439 7 1449 1 14 18 -3 57
-58 30 -43 59 -86 65 -97 5 -10 13 -19 17 -19 5 0 8 -6 8 -14 0 -8 4 -16 8
-18 7 -2 69 -87 107 -146 6 -8 15 -23 22 -31 37 -48 243 -342 243 -346 0 -4
13 -21 45 -59 6 -7 15 -19 20 -27 44 -69 92 -135 102 -142 7 -4 13 -14 13 -22
0 -7 3 -15 8 -17 4 -1 41 -50 82 -108 41 -58 80 -112 87 -120 7 -8 69 -91 139
-185 157 -209 349 -448 423 -526 92 -95 191 -124 294 -85 55 21 159 127 298
306 24 30 46 57 51 58 4 2 8 8 8 13 0 5 11 22 24 37 21 23 198 254 248 323 9
13 45 63 80 110 35 48 70 96 78 108 44 63 231 327 238 336 33 41 132 187 132
194 0 5 4 11 9 13 8 2 88 113 201 278 6 8 37 53 70 100 33 47 66 93 73 103 6
11 19 27 27 38 8 10 23 30 34 45 20 28 15 28 170 1 76 -14 230 -16 291 -4 64
13 75 16 141 43 70 27 87 36 159 83 47 31 152 133 183 178 23 32 83 148 87
167 1 6 7 23 13 38 23 55 52 165 60 223 9 65 2 106 -27 170 -10 22 -18 42 -18
45 1 6 -79 124 -107 158 -39 47 -111 114 -137 128 -15 7 -42 15 -60 18 -56 7
-88 20 -217 87 -116 60 -126 64 -190 64 -61 -1 -125 -21 -142 -45 -3 -4 -13
-11 -22 -16 -16 -9 -101 -89 -149 -141 -59 -64 -314 -399 -397 -519 -7 -11
-51 -73 -98 -139 -85 -118 -149 -211 -169 -243 -5 -8 -16 -23 -23 -31 -6 -9
-50 -70 -97 -136 -46 -66 -89 -127 -95 -135 -6 -8 -45 -64 -88 -123 -42 -60
-81 -116 -87 -126 -5 -9 -16 -23 -23 -31 -7 -8 -66 -91 -133 -185 -122 -173
-144 -203 -240 -335 -31 -41 -100 -137 -154 -212 l-98 -137 -44 59 c-24 33
-43 64 -43 69 0 5 -4 11 -8 13 -4 2 -38 46 -75 98 -37 52 -70 100 -75 105 -4
6 -23 33 -42 60 -19 28 -37 52 -42 53 -4 2 -8 10 -8 17 0 7 -3 15 -7 17 -5 2
-28 32 -53 68 -24 36 -48 70 -52 75 -28 35 -148 207 -148 211 0 3 -6 11 -12
18 -7 8 -19 22 -26 32 -7 11 -113 161 -237 334 -124 173 -242 340 -262 370
-21 30 -43 59 -50 63 -7 4 -13 12 -13 17 0 6 -7 18 -15 27 -8 10 -44 59 -79
108 -36 50 -69 95 -73 100 -5 6 -20 26 -33 45 -14 19 -30 42 -37 50 -7 8 -82
110 -169 225 -86 116 -170 224 -186 242 -68 71 -198 97 -305 61z m4526 -283
c124 -65 173 -178 174 -405 1 -116 -6 -151 -43 -226 -35 -71 -136 -182 -213
-234 -241 -161 -550 -181 -508 -33 12 43 65 134 155 268 45 66 85 124 89 130
5 5 27 39 50 75 159 246 214 355 216 428 1 29 20 28 80 -3z"/>
<path d="M4859 3135 c-4 -3 -30 -8 -119 -21 -19 -3 -62 -12 -95 -21 -33 -8
-64 -16 -70 -18 -5 -1 -23 -7 -38 -13 -16 -7 -31 -12 -34 -12 -8 0 -142 -66
-167 -83 -64 -41 -212 -187 -189 -187 3 0 -1 -8 -10 -18 -58 -63 -137 -352
-139 -502 -1 -45 12 -100 23 -100 5 0 9 -7 9 -15 0 -8 28 -44 63 -80 34 -36
61 -65 58 -65 -8 0 76 -63 114 -85 56 -33 116 -46 220 -51 119 -4 175 -12 192
-25 7 -6 13 -8 13 -3 1 5 9 -1 20 -14 15 -19 17 -28 8 -60 -22 -83 -95 -206
-179 -307 -50 -60 -239 -247 -279 -277 -61 -45 -181 -170 -200 -208 -30 -59
-31 -85 -5 -114 44 -48 92 -53 215 -22 19 5 114 50 165 79 42 23 216 137 225
146 3 3 34 28 70 56 36 27 70 54 76 60 6 5 31 26 55 45 136 109 413 408 508
549 112 168 181 353 199 534 9 90 6 332 -4 355 -4 9 -8 23 -10 30 -11 52 -60
119 -168 227 -194 194 -237 217 -407 221 -64 2 -118 1 -120 -1z m166 -139 c86
-12 186 -53 232 -95 122 -114 224 -368 210 -527 -8 -84 -54 -218 -117 -339
-29 -55 -56 -102 -59 -105 -4 -3 -22 -30 -40 -60 -36 -59 -159 -228 -188 -258
-10 -10 -43 -47 -73 -82 -181 -210 -415 -402 -607 -499 -136 -68 -138 -52 -9
52 295 237 585 774 492 911 -19 28 -20 28 -97 23 -43 -3 -83 -8 -89 -12 -5 -3
-31 -6 -57 -6 -145 1 -235 19 -341 69 -141 66 -162 126 -127 367 12 87 90 257
155 339 39 49 121 113 170 132 8 3 26 12 40 19 45 24 200 64 273 71 40 3 73 7
74 8 4 4 112 -2 158 -8z"/>
</g>
</svg>
