
<svg version="1.0" xmlns="http://www.w3.org/2000/svg"
 width="433.000000pt" height="577.000000pt" viewBox="0 0 433.000000 577.000000"
 preserveAspectRatio="xMidYMid meet">

<g transform="translate(0.000000,577.000000) scale(0.100000,-0.100000)"
fill="#000000aa" stroke="none">
<path d="M1724 5539 c-3 -5 -28 -9 -55 -9 -58 0 -139 -18 -139 -31 0 -5 -7 -9
-15 -9 -8 0 -15 4 -15 8 0 7 -17 8 -100 4 -30 -2 -35 -6 -36 -27 -2 -25 -38
-64 -61 -65 -7 0 -13 -7 -13 -15 0 -9 -10 -15 -26 -15 -19 0 -28 -8 -40 -35
-8 -19 -19 -35 -24 -35 -6 0 -10 -6 -10 -12 0 -7 -12 -24 -26 -37 -14 -13 -32
-37 -40 -53 -8 -15 -19 -28 -24 -28 -6 0 -10 -8 -10 -17 0 -10 -8 -32 -18 -48
-26 -42 -34 -132 -16 -174 8 -18 14 -43 14 -56 0 -37 37 -175 62 -229 58 -126
118 -238 113 -211 -4 17 -6 39 -6 49 0 11 -5 28 -11 40 -6 11 -12 50 -13 87
-2 37 -6 77 -10 89 -4 14 -3 20 2 17 6 -4 9 20 8 61 -2 46 2 72 12 84 8 9 17
35 20 57 3 23 10 44 15 47 13 8 173 26 248 28 48 1 65 -2 65 -12 0 -9 16 -15
48 -18 28 -2 47 1 47 7 0 6 5 7 10 4 6 -3 18 1 27 10 15 16 17 16 32 -4 18
-23 57 -19 77 7 8 11 35 16 100 18 49 1 91 3 94 4 3 1 9 2 13 1 4 -1 21 6 38
14 16 9 34 13 39 10 5 -3 18 3 30 15 27 27 43 25 85 -11 39 -35 56 -66 79
-151 9 -32 21 -58 27 -58 6 0 9 -12 7 -27 -2 -18 2 -27 9 -26 7 2 10 -4 7 -12
-4 -9 -1 -22 5 -29 7 -8 12 -34 12 -58 0 -24 7 -68 16 -98 12 -44 17 -51 25
-37 5 10 13 15 19 12 5 -4 9 -1 9 4 0 6 6 11 13 11 6 0 20 14 29 31 19 32 9
30 -29 -4 -13 -11 -26 -17 -30 -13 -4 3 -6 68 -5 144 3 135 -20 317 -45 367
-5 11 -10 34 -11 51 -4 69 -55 163 -88 164 -16 0 -48 31 -69 68 -11 17 -22 32
-25 32 -3 0 -20 13 -37 29 -22 19 -48 30 -82 35 -27 3 -51 13 -54 20 -3 8 -21
14 -44 15 -21 0 -63 5 -93 11 -81 15 -130 19 -136 9z"/>
<path d="M1565 4950 c-3 -5 -1 -10 4 -10 6 0 11 5 11 10 0 6 -2 10 -4 10 -3 0
-8 -4 -11 -10z"/>
<path d="M2115 4698 c-152 -52 -206 -75 -235 -100 l-35 -29 24 -20 c18 -15 26
-35 32 -76 8 -57 36 -123 52 -123 5 0 7 7 4 15 -4 8 -1 17 4 21 6 3 9 14 6 24
-3 11 2 21 10 24 8 3 12 10 9 15 -15 24 62 49 171 57 50 3 90 1 102 -5 22 -12
51 -5 51 13 0 7 -19 23 -42 36 -32 18 -55 23 -99 22 -32 -1 -61 3 -64 8 -22
36 158 35 191 -1 17 -19 44 -26 44 -11 0 4 -5 24 -10 44 -8 27 -23 44 -57 67
-50 33 -99 39 -158 19z m-158 -250 c-3 -8 -6 -5 -6 6 -1 11 2 17 5 13 3 -3 4
-12 1 -19z"/>
<path d="M2519 4626 c-12 -25 -3 -69 31 -161 13 -34 24 70 14 128 -10 57 -28
71 -45 33z"/>
<path d="M1545 4585 c-22 -8 -69 -17 -105 -19 -58 -4 -68 -8 -96 -38 -25 -28
-30 -41 -28 -72 4 -50 9 -54 37 -28 13 12 29 22 36 22 7 0 32 12 57 26 32 19
52 24 71 19 25 -6 22 -9 -37 -32 -69 -28 -115 -66 -106 -89 8 -20 36 -17 60 5
14 12 51 22 111 30 155 21 157 22 144 37 -9 12 -5 14 26 14 28 0 36 3 32 14
-3 8 2 25 12 38 12 16 15 32 10 53 -4 21 -7 24 -9 10 -1 -16 -3 -17 -8 -5 -5
10 -24 15 -62 16 -30 1 -66 4 -80 7 -14 4 -43 0 -65 -8z m70 -145 c-3 -5 -10
-10 -16 -10 -5 0 -9 5 -9 10 0 6 7 10 16 10 8 0 12 -4 9 -10z"/>
<path d="M1815 4580 c-3 -5 -1 -10 4 -10 6 0 11 5 11 10 0 6 -2 10 -4 10 -3 0
-8 -4 -11 -10z"/>
<path d="M2451 4544 c-29 -31 -33 -41 -27 -72 3 -21 15 -44 26 -54 24 -19 28
-76 5 -84 -19 -8 -21 -74 -2 -74 23 0 35 15 48 58 10 34 10 48 1 63 -10 16 -9
22 8 36 11 10 20 25 20 35 0 21 -37 48 -56 41 -18 -7 -18 6 1 51 8 20 14 36
13 36 -2 0 -18 -16 -37 -36z"/>
<path d="M2192 4480 c-12 -5 -46 -11 -74 -12 -30 -2 -53 -8 -56 -15 -3 -10 16
-13 73 -13 75 0 115 11 115 31 0 6 -4 7 -10 4 -5 -3 -10 -1 -10 4 0 13 -7 13
-38 1z"/>
<path d="M1162 4434 c10 -10 20 -15 24 -12 3 4 -5 12 -18 18 -22 12 -22 12 -6
-6z"/>
<path d="M1083 4426 c3 -7 9 -34 12 -60 4 -25 12 -49 17 -52 29 -18 31 75 3
106 -21 23 -40 27 -32 6z"/>
<path d="M1580 4380 c-25 -10 -62 -19 -82 -19 -44 -1 -59 -18 -24 -27 34 -8
122 12 163 37 18 11 33 23 33 25 0 10 -49 1 -90 -16z"/>
<path d="M1213 4303 c-23 -9 -12 -73 11 -73 7 0 19 11 26 25 11 20 11 27 0 40
-13 16 -17 17 -37 8z"/>
<path d="M1990 4266 c0 -2 7 -6 15 -10 8 -3 15 -1 15 4 0 6 -7 10 -15 10 -8 0
-15 -2 -15 -4z"/>
<path d="M2448 4225 c6 -32 36 -30 40 3 3 18 -1 22 -21 22 -21 0 -23 -4 -19
-25z"/>
<path d="M1987 4166 c-8 -9 -17 -20 -19 -25 -1 -6 -16 -12 -32 -15 -15 -3 -38
-11 -50 -19 -20 -13 -24 -12 -49 9 -32 27 -69 31 -87 9 -17 -20 -8 -37 31 -59
19 -10 28 -13 22 -5 -20 21 -15 29 16 26 32 -4 64 -25 56 -37 -3 -4 -16 -7
-30 -7 -14 0 -37 -11 -51 -24 -14 -13 -28 -23 -30 -21 -2 1 -21 -5 -42 -14
-20 -9 -43 -17 -50 -18 -7 -1 -18 -8 -24 -14 -7 -7 -18 -12 -25 -12 -7 0 -13
-10 -14 -22 -2 -45 3 -93 12 -110 15 -28 22 -111 8 -103 -6 4 -15 2 -19 -6 -7
-10 -11 -10 -24 0 -9 7 -24 10 -33 7 -12 -5 -14 -9 -6 -14 7 -4 17 -20 22 -35
6 -16 15 -25 21 -22 5 3 10 0 10 -9 0 -18 101 -115 151 -145 47 -28 117 -61
130 -61 7 0 9 -3 6 -7 -4 -4 6 -12 23 -19 16 -7 30 -20 30 -28 0 -10 6 -13 17
-9 12 5 15 2 10 -10 -7 -18 19 -31 71 -36 7 0 11 -5 7 -10 -3 -6 3 -9 12 -9
10 1 35 -2 56 -5 23 -5 37 -3 37 4 0 5 5 7 10 4 6 -3 10 -2 10 4 0 6 12 18 28
26 15 9 19 14 10 11 -10 -3 -18 -1 -18 4 0 6 7 10 16 10 11 0 15 6 11 20 -4
15 0 20 16 20 18 0 19 -2 7 -10 -9 -6 -10 -10 -3 -10 6 0 14 4 18 9 7 13 -26
30 -45 23 -12 -4 -13 -3 -3 10 7 8 10 18 6 21 -3 4 -1 7 6 7 9 0 9 5 1 20 -9
16 -5 26 26 57 20 21 33 32 29 26 -3 -7 -4 -13 0 -13 3 0 10 11 15 25 5 14 15
25 21 25 8 0 7 -5 -2 -17 -13 -15 -12 -15 9 -4 24 13 30 41 10 41 -8 0 -5 7 6
15 14 11 16 15 5 15 -12 0 -12 2 1 10 8 5 11 10 6 10 -4 0 -1 11 7 24 9 13 17
34 19 47 2 13 7 30 11 37 5 7 9 27 9 45 1 17 5 35 10 38 5 3 11 25 14 49 3 24
7 48 10 52 3 4 -2 8 -10 8 -11 0 -13 8 -9 33 10 58 4 87 -22 113 -14 13 -25
21 -26 17 0 -4 -2 -19 -5 -33 -16 -107 -29 -230 -23 -230 4 0 5 -9 2 -20 -5
-19 4 -25 35 -21 6 1 12 -8 12 -19 0 -14 -4 -19 -12 -14 -6 4 -9 3 -6 -2 3 -5
2 -18 -2 -29 -7 -17 -9 -15 -18 15 -6 21 -11 27 -11 15 -1 -15 -3 -17 -10 -7
-7 11 -9 11 -14 -2 -3 -8 -2 -18 4 -21 5 -4 7 -11 4 -16 -8 -12 -45 -12 -45 1
0 6 4 9 9 8 5 -2 9 0 10 5 3 21 -1 26 -19 22 -13 -3 -20 2 -20 13 0 12 3 13
11 5 16 -16 39 -5 39 19 0 12 4 17 12 12 7 -5 8 -3 2 7 -4 8 -10 21 -11 29 -4
27 -12 104 -12 130 -1 39 -78 81 -147 81 -30 0 -56 5 -59 10 -4 5 -15 9 -26 9
-23 0 -24 8 -5 29 8 9 16 27 18 41 3 22 -1 25 -33 28 -23 2 -42 -3 -52 -12z
m-2 -205 c-15 -15 -85 -25 -85 -13 0 6 17 13 38 15 20 2 41 4 47 5 6 1 6 -1 0
-7z m55 -18 c0 -5 -11 -13 -25 -20 -14 -6 -23 -7 -19 -2 3 5 -1 9 -8 10 -7 1
-2 5 12 9 34 11 40 11 40 3z m-70 -20 c0 -9 -3 -14 -6 -10 -4 3 -13 -1 -22 -9
-9 -9 -18 -12 -24 -6 -6 6 -33 4 -71 -4 -34 -7 -65 -10 -70 -7 -17 10 45 32
116 41 40 5 73 10 75 11 1 0 2 -6 2 -16z m193 -19 c7 -7 -11 -46 -26 -55 -5
-4 -5 -9 2 -13 6 -4 11 -2 11 3 0 6 5 11 11 11 6 0 24 10 41 21 26 19 31 20
45 7 15 -16 7 -40 -42 -128 -9 -16 -11 -28 -5 -34 17 -17 11 -29 -7 -15 -10 7
-15 10 -11 5 8 -10 -23 -47 -34 -40 -4 3 -8 -2 -8 -10 0 -17 -34 -22 -64 -10
-17 7 -22 34 -6 34 6 0 10 9 10 20 0 11 4 20 9 20 5 0 13 9 16 20 5 15 12 19
26 15 11 -4 19 -2 19 4 0 6 -4 11 -10 11 -5 0 -10 5 -10 11 0 6 -6 17 -14 24
-11 11 -18 11 -37 1 -32 -16 -94 -33 -149 -41 -47 -6 -90 -23 -90 -36 0 -4 11
-10 25 -13 14 -4 25 -13 25 -21 0 -8 3 -15 8 -14 4 1 17 -2 30 -6 24 -8 29
-34 11 -66 -8 -17 -17 -19 -56 -14 -25 3 -49 8 -54 11 -5 3 -18 0 -30 -7 -16
-8 -20 -8 -14 1 4 6 -1 20 -11 31 -9 10 -14 19 -9 19 4 0 2 7 -5 15 -7 8 -16
12 -21 9 -15 -9 -51 7 -46 21 3 7 -1 12 -10 11 -10 -1 -16 11 -19 41 -4 48 18
83 57 89 13 2 42 8 64 13 22 6 63 11 90 11 28 0 95 11 150 24 109 27 128 29
138 20z m217 -48 c0 -3 -4 -8 -10 -11 -5 -3 -10 -1 -10 4 0 6 5 11 10 11 6 0
10 -2 10 -4z m-90 -56 c0 -5 -4 -10 -10 -10 -5 0 -10 5 -10 10 0 6 5 10 10 10
6 0 10 -4 10 -10z m-625 -131 c3 -4 1 -11 -5 -14 -6 -4 -1 -14 12 -25 20 -16
16 -16 -24 3 -26 12 -49 28 -52 35 -3 7 -2 10 3 7 5 -3 12 -1 15 4 7 10 43 3
51 -10z m9 -64 c11 -8 16 -15 10 -15 -5 0 -18 7 -28 15 -11 8 -16 15 -10 15 5
0 18 -7 28 -15z"/>
<path d="M1230 4146 c0 -14 48 -51 56 -43 5 5 -43 57 -51 57 -3 0 -5 -6 -5
-14z"/>
<path d="M2450 4149 c0 -5 5 -7 10 -4 6 3 10 8 10 11 0 2 -4 4 -10 4 -5 0 -10
-5 -10 -11z"/>
<path d="M2320 4080 c0 -5 5 -10 10 -10 6 0 10 5 10 10 0 6 -4 10 -10 10 -5 0
-10 -4 -10 -10z"/>
<path d="M1350 3980 c0 -5 5 -10 10 -10 6 0 10 5 10 10 0 6 -4 10 -10 10 -5 0
-10 -4 -10 -10z"/>
<path d="M1493 3893 c-15 -5 -18 -33 -4 -33 5 0 11 9 14 20 3 11 4 20 4 19 -1
0 -8 -3 -14 -6z"/>
<path d="M1481 3811 c-6 -10 -7 -21 -4 -25 13 -13 21 -5 19 19 -1 30 -2 30
-15 6z"/>
<path d="M1561 3802 c-1 -15 -5 -21 -13 -16 -7 5 -8 3 -3 -5 10 -18 28 2 22
25 -4 15 -5 14 -6 -4z"/>
<path d="M1520 3755 c0 -8 8 -15 18 -16 15 0 15 -1 -2 -8 -17 -7 -18 -8 -3
-14 23 -9 30 8 15 33 -15 24 -28 26 -28 5z"/>
<path d="M1580 3720 c0 -5 5 -10 10 -10 6 0 10 5 10 10 0 6 -4 10 -10 10 -5 0
-10 -4 -10 -10z"/>
<path d="M2485 3429 c4 -17 20 -50 35 -73 56 -82 79 -179 55 -231 -9 -19 -8
-19 9 -2 22 21 35 74 36 137 0 33 3 41 10 30 5 -8 10 -40 10 -70 0 -66 -33
-133 -68 -138 -13 -2 -33 -19 -47 -42 -37 -58 -140 -137 -161 -122 -12 9 -18
56 -6 48 16 -9 43 81 32 107 -5 12 -9 17 -9 11 -1 -16 -56 -74 -71 -74 -6 0
-8 -4 -5 -10 3 -5 1 -10 -5 -10 -8 0 -10 -9 -6 -25 4 -14 2 -25 -3 -25 -5 0
-7 -10 -3 -22 4 -16 2 -19 -9 -13 -12 8 -12 6 0 -8 12 -15 9 -19 -30 -36 -24
-11 -83 -25 -131 -32 -103 -15 -219 -1 -308 36 -180 76 -314 151 -368 208 -32
33 -33 36 -19 63 17 33 60 67 97 79 35 11 50 24 50 46 0 27 -25 23 -100 -14
-50 -25 -69 -41 -82 -68 -15 -31 -33 -44 -150 -102 -127 -62 -219 -95 -478
-167 -124 -35 -141 -44 -241 -132 -65 -56 -69 -63 -142 -225 -95 -212 -129
-303 -161 -428 -14 -55 -44 -161 -66 -235 -22 -74 -58 -200 -80 -280 -22 -80
-47 -166 -55 -191 -8 -26 -15 -81 -15 -123 0 -74 0 -76 28 -82 15 -3 52 -12
82 -20 74 -20 256 -58 475 -100 99 -19 185 -40 192 -47 9 -8 10 -23 3 -51 -5
-22 -7 -44 -4 -48 3 -4 1 -8 -4 -8 -8 0 -33 -157 -33 -205 0 -11 -4 -33 -9
-50 -5 -16 -11 -42 -12 -57 -1 -16 -6 -28 -10 -28 -4 0 -8 -9 -8 -20 0 -11 -4
-20 -9 -20 -4 0 -6 -11 -4 -24 3 -13 -3 -38 -11 -55 -9 -17 -14 -36 -11 -41 5
-9 -12 -49 -26 -60 -4 -3 -10 -16 -14 -30 -4 -14 -15 -34 -25 -45 -22 -25 -28
-73 -12 -102 8 -14 8 -23 1 -25 -5 -2 -11 -10 -13 -18 -2 -8 -8 -28 -14 -43
-7 -16 -12 -34 -12 -42 0 -8 -4 -16 -9 -19 -4 -3 -6 -17 -3 -31 4 -23 9 -25
52 -25 l47 0 7 53 c4 28 27 113 51 187 68 209 94 349 135 725 6 54 17 106 24
115 8 8 17 30 21 47 3 18 11 36 17 39 6 4 8 -59 5 -187 -5 -242 7 -938 17
-961 8 -17 77 -18 1252 -18 684 0 1244 2 1244 5 0 2 -7 22 -16 43 -14 36 -14
55 1 205 16 169 13 318 -15 667 -19 248 -32 566 -25 637 7 75 21 100 39 68 6
-10 24 -34 40 -53 36 -41 102 -239 177 -526 27 -105 73 -261 101 -346 l52
-155 0 -137 c1 -160 7 -168 63 -81 20 32 41 61 47 65 6 4 8 8 3 8 -4 0 -1 12
6 28 8 15 13 41 12 57 -4 57 -17 125 -24 125 -10 0 -7 64 4 72 6 5 5 8 -4 8
-7 0 -11 6 -8 15 4 8 2 17 -4 20 -5 4 -7 10 -5 14 8 13 -10 32 -32 34 -12 1
-22 7 -22 14 0 8 -7 16 -16 20 -8 3 -13 12 -10 20 3 8 1 11 -4 8 -9 -5 -15 9
-7 18 1 2 -6 11 -15 21 -10 10 -18 27 -18 39 0 12 -7 35 -15 51 -8 15 -13 32
-10 36 3 5 1 11 -5 15 -5 3 -10 14 -10 23 0 9 -6 29 -14 43 -7 14 -16 39 -20
55 -4 16 -20 63 -36 104 -18 47 -30 104 -34 155 -4 44 -10 101 -15 128 -5 31
-4 50 3 56 6 5 99 51 206 103 166 81 199 101 220 132 14 20 45 50 70 66 25 16
65 49 88 73 49 50 51 38 -19 151 -16 27 -39 76 -51 110 -11 33 -54 129 -95
211 -42 83 -95 200 -120 260 -85 208 -123 261 -300 413 -61 52 -65 53 -218 92
-86 21 -191 44 -233 50 -42 6 -131 25 -197 41 -113 28 -149 43 -350 148 -80
41 -99 41 -90 0z m-145 -514 c0 -8 -4 -15 -10 -15 -5 0 -7 7 -4 15 4 8 8 15
10 15 2 0 4 -7 4 -15z m-492 -951 c45 -17 62 -47 62 -104 0 -66 -27 -87 -155
-116 -344 -77 -375 -89 -395 -150 -11 -34 -29 -47 -48 -35 -30 18 -56 160 -41
216 19 69 52 92 174 120 243 56 330 77 334 81 8 8 30 4 69 -12z m99 -366 c-3
-8 -6 -5 -6 6 -1 11 2 17 5 13 3 -3 4 -12 1 -19z m0 -160 c-3 -8 -6 -5 -6 6
-1 11 2 17 5 13 3 -3 4 -12 1 -19z m-27 -41 c0 -2 -10 -12 -22 -23 l-23 -19
19 23 c18 21 26 27 26 19z m-1000 -206 c0 -4 -6 -8 -14 -8 -8 0 -12 6 -9 14 5
13 23 9 23 -6z"/>
<path d="M2235 3420 c-3 -5 -1 -10 4 -10 6 0 11 5 11 10 0 6 -2 10 -4 10 -3 0
-8 -4 -11 -10z"/>
<path d="M2270 3416 c0 -2 7 -7 16 -10 8 -3 12 -2 9 4 -6 10 -25 14 -25 6z"/>
<path d="M2235 3350 c-3 -6 1 -7 9 -4 18 7 21 14 7 14 -6 0 -13 -4 -16 -10z"/>
<path d="M2354 3353 c3 -6 -12 -27 -36 -49 -24 -20 -37 -34 -30 -30 7 5 12 1
12 -11 0 -12 12 -22 35 -29 19 -6 32 -7 29 -2 -3 4 5 13 18 18 l23 11 -24 -5
c-18 -4 -21 -2 -12 7 20 20 12 29 -21 22 -29 -5 -31 -4 -16 8 10 8 15 17 11
20 -10 11 6 8 30 -5 21 -11 21 -10 7 7 -8 10 -10 16 -5 13 6 -4 17 -3 25 3 12
7 11 9 -5 9 -12 0 -27 6 -34 13 -9 8 -12 8 -7 0z m-24 -87 c0 -3 -4 -8 -10
-11 -5 -3 -10 -1 -10 4 0 6 5 11 10 11 6 0 10 -2 10 -4z"/>
<path d="M2388 3353 c7 -3 16 -2 19 1 4 3 -2 6 -13 5 -11 0 -14 -3 -6 -6z"/>
<path d="M2300 3340 c-8 -5 -10 -10 -5 -10 6 0 17 5 25 10 8 5 11 10 5 10 -5
0 -17 -5 -25 -10z"/>
<path d="M2294 3218 c-3 -4 4 -8 15 -8 11 0 22 4 26 9 3 6 -4 9 -16 8 -11 -1
-23 -5 -25 -9z"/>
<path d="M2326 3188 c3 -5 10 -6 15 -3 13 9 11 12 -6 12 -8 0 -12 -4 -9 -9z"/>
<path d="M2177 3159 c-19 -16 -50 -32 -67 -35 -24 -5 -30 -11 -28 -28 2 -15
10 -21 28 -21 14 0 24 5 23 11 -1 6 4 11 12 11 8 0 11 -5 8 -11 -4 -6 1 -5 10
3 9 7 17 10 17 6 0 -4 12 5 26 20 14 15 23 33 20 41 -3 7 0 14 7 17 6 2 5 6
-5 9 -9 4 -30 -5 -51 -23z"/>
<path d="M2250 3179 c0 -5 5 -7 10 -4 6 3 10 8 10 11 0 2 -4 4 -10 4 -5 0 -10
-5 -10 -11z"/>
<path d="M2300 3160 c-9 -6 -10 -10 -3 -10 6 0 15 5 18 10 8 12 4 12 -15 0z"/>
<path d="M4065 1360 c4 -20 -33 -70 -53 -70 -14 0 -23 -28 -12 -35 15 -10 12
-25 -4 -19 -11 4 -13 0 -9 -15 8 -30 -6 -91 -20 -91 -16 0 -16 -52 0 -63 6 -4
9 -17 7 -30 -3 -12 -6 -57 -7 -99 -1 -43 -6 -78 -11 -78 -5 0 -4 -6 2 -12 5
-7 8 -23 6 -36 -2 -13 0 -21 6 -17 5 3 8 -5 8 -17 -2 -29 12 -78 22 -78 4 0 7
-65 7 -145 1 -80 -2 -145 -6 -145 -3 0 -6 -28 -5 -63 1 -34 -4 -71 -10 -82 -5
-11 -11 -24 -11 -30 -1 -13 18 -34 26 -29 5 3 4 -33 -1 -46 -1 -3 -3 -9 -5
-15 -1 -5 -3 -14 -5 -20 -2 -5 -4 -23 -5 -40 -1 -16 -6 -43 -10 -58 l-7 -28
143 3 144 3 22 65 c25 75 40 228 25 257 -6 10 -12 52 -13 93 -1 41 -6 92 -10
114 -4 23 -10 59 -13 81 -3 22 -14 90 -25 150 -11 61 -29 164 -41 230 -34 200
-56 284 -89 343 -26 44 -53 57 -46 22z"/>
<path d="M3936 913 c-6 -14 -5 -15 5 -6 7 7 10 15 7 18 -3 3 -9 -2 -12 -12z"/>
<path d="M3738 148 c-10 -12 -18 -29 -17 -38 0 -13 1 -13 6 0 4 8 13 20 21 26
8 6 13 16 11 22 -2 7 -11 2 -21 -10z"/>
<path d="M3694 82 c-5 -4 -20 -24 -33 -44 l-23 -38 25 0 c19 0 24 5 23 23 -1
12 4 32 12 45 15 23 14 27 -4 14z"/>
</g>
</svg>
