<svg id="visual" viewBox="0 0 900 600" width="900" height="600" xmlns="http://www.w3.org/2000/svg" xmlns:xlink="http://www.w3.org/1999/xlink" version="1.1"><g stroke-width="1" stroke-linejoin="bevel"><path d="M431 312L397 297L401 340.9Z" fill="#071b30" stroke="#030511"></path><path d="M397 297L373 326.9L401 340.9Z" fill="#132743" stroke="#030511"></path><path d="M397 297L352 301L373 326.9Z" fill="#162b48" stroke="#030511"></path><path d="M346 374.7L426 379.7L401 340.9Z" fill="#162b48" stroke="#030511"></path><path d="M401 340.9L464 355.9L431 312Z" fill="#1d3152" stroke="#030511"></path><path d="M438 254.1L401 254.1L397 297Z" fill="#05182b" stroke="#030511"></path><path d="M397 297L350 256.1L352 301Z" fill="#071b30" stroke="#030511"></path><path d="M426 379.7L464 355.9L401 340.9Z" fill="#0a1e34" stroke="#030511"></path><path d="M431 312L438 254.1L397 297Z" fill="#031526" stroke="#030511"></path><path d="M491 245.1L438 254.1L431 312Z" fill="#162b48" stroke="#030511"></path><path d="M352 301L336 348.9L373 326.9Z" fill="#132743" stroke="#030511"></path><path d="M373 326.9L346 374.7L401 340.9Z" fill="#132743" stroke="#030511"></path><path d="M350 256.1L331 296L352 301Z" fill="#001122" stroke="#030511"></path><path d="M352 301L331 296L336 348.9Z" fill="#1d3152" stroke="#030511"></path><path d="M336 348.9L346 374.7L373 326.9Z" fill="#031526" stroke="#030511"></path><path d="M401 254.1L350 256.1L397 297Z" fill="#001122" stroke="#030511"></path><path d="M420 408.6L432 404.7L426 379.7Z" fill="#132743" stroke="#030511"></path><path d="M426 379.7L474 404.7L464 355.9Z" fill="#001122" stroke="#030511"></path><path d="M346 374.7L420 408.6L426 379.7Z" fill="#132743" stroke="#030511"></path><path d="M403 211.3L376 227.3L401 254.1Z" fill="#1d3152" stroke="#030511"></path><path d="M401 254.1L376 227.3L350 256.1Z" fill="#10243e" stroke="#030511"></path><path d="M504 350.9L508 322L464 355.9Z" fill="#031526" stroke="#030511"></path><path d="M464 355.9L508 322L431 312Z" fill="#1d3152" stroke="#030511"></path><path d="M491 245.1L455 229.3L438 254.1Z" fill="#001122" stroke="#030511"></path><path d="M438 254.1L403 211.3L401 254.1Z" fill="#071b30" stroke="#030511"></path><path d="M474 404.7L504 350.9L464 355.9Z" fill="#1d3152" stroke="#030511"></path><path d="M455 229.3L403 211.3L438 254.1Z" fill="#1a2e4d" stroke="#030511"></path><path d="M439 433.6L474 404.7L432 404.7Z" fill="#0d2139" stroke="#030511"></path><path d="M432 404.7L474 404.7L426 379.7Z" fill="#1d3152" stroke="#030511"></path><path d="M508 322L491 245.1L431 312Z" fill="#071b30" stroke="#030511"></path><path d="M350 256.1L305 277.1L331 296Z" fill="#071b30" stroke="#030511"></path><path d="M331 296L291 330.9L336 348.9Z" fill="#0a1e34" stroke="#030511"></path><path d="M336 348.9L303 403.7L346 374.7Z" fill="#001122" stroke="#030511"></path><path d="M273 267.1L305 277.1L286 228.3Z" fill="#162b48" stroke="#030511"></path><path d="M305 277.1L291 330.9L331 296Z" fill="#031526" stroke="#030511"></path><path d="M385 458.4L439 433.6L420 408.6Z" fill="#132743" stroke="#030511"></path><path d="M420 408.6L439 433.6L432 404.7Z" fill="#071b30" stroke="#030511"></path><path d="M546 358.9L528 288L508 322Z" fill="#05182b" stroke="#030511"></path><path d="M508 322L528 288L491 245.1Z" fill="#162b48" stroke="#030511"></path><path d="M315 432.6L377 444.6L346 374.7Z" fill="#1d3152" stroke="#030511"></path><path d="M346 374.7L377 444.6L420 408.6Z" fill="#05182b" stroke="#030511"></path><path d="M522 230.3L487 214.3L491 245.1Z" fill="#1d3152" stroke="#030511"></path><path d="M491 245.1L487 214.3L455 229.3Z" fill="#05182b" stroke="#030511"></path><path d="M445 149.4L390 160.4L403 211.3Z" fill="#0d2139" stroke="#030511"></path><path d="M474 404.7L534 366.7L504 350.9Z" fill="#1d3152" stroke="#030511"></path><path d="M504 350.9L546 358.9L508 322Z" fill="#031526" stroke="#030511"></path><path d="M508 438.6L534 366.7L474 404.7Z" fill="#162b48" stroke="#030511"></path><path d="M291 330.9L303 403.7L336 348.9Z" fill="#1a2e4d" stroke="#030511"></path><path d="M350 470.4L385 458.4L377 444.6Z" fill="#0d2139" stroke="#030511"></path><path d="M377 444.6L385 458.4L420 408.6Z" fill="#001122" stroke="#030511"></path><path d="M586 351.9L546 358.9L591 381.7Z" fill="#001122" stroke="#030511"></path><path d="M534 366.7L546 358.9L504 350.9Z" fill="#10243e" stroke="#030511"></path><path d="M557 256.1L522 230.3L528 288Z" fill="#0d2139" stroke="#030511"></path><path d="M528 288L522 230.3L491 245.1Z" fill="#0a1e34" stroke="#030511"></path><path d="M286 228.3L305 277.1L350 256.1Z" fill="#0d2139" stroke="#030511"></path><path d="M305 277.1L263 284L291 330.9Z" fill="#071b30" stroke="#030511"></path><path d="M291 330.9L261 380.7L303 403.7Z" fill="#071b30" stroke="#030511"></path><path d="M313 204.3L350 256.1L376 227.3Z" fill="#001122" stroke="#030511"></path><path d="M390 160.4L360 181.4L403 211.3Z" fill="#071b30" stroke="#030511"></path><path d="M403 211.3L360 181.4L376 227.3Z" fill="#1d3152" stroke="#030511"></path><path d="M303 403.7L315 432.6L346 374.7Z" fill="#0d2139" stroke="#030511"></path><path d="M360 181.4L313 204.3L376 227.3Z" fill="#162b48" stroke="#030511"></path><path d="M273 267.1L263 284L305 277.1Z" fill="#162b48" stroke="#030511"></path><path d="M313 204.3L286 228.3L350 256.1Z" fill="#162b48" stroke="#030511"></path><path d="M273 267.1L224 278.1L263 284Z" fill="#162b48" stroke="#030511"></path><path d="M500 464.4L508 438.6L439 433.6Z" fill="#071b30" stroke="#030511"></path><path d="M439 433.6L508 438.6L474 404.7Z" fill="#001122" stroke="#030511"></path><path d="M445 149.4L455 229.3L487 214.3Z" fill="#1a2e4d" stroke="#030511"></path><path d="M445 149.4L403 211.3L455 229.3Z" fill="#132743" stroke="#030511"></path><path d="M360 181.4L308 171.4L313 204.3Z" fill="#0a1e34" stroke="#030511"></path><path d="M234 367.7L261 380.7L291 330.9Z" fill="#1d3152" stroke="#030511"></path><path d="M303 403.7L260 409.6L315 432.6Z" fill="#132743" stroke="#030511"></path><path d="M572 284L557 256.1L528 288Z" fill="#071b30" stroke="#030511"></path><path d="M315 432.6L350 470.4L377 444.6Z" fill="#001122" stroke="#030511"></path><path d="M464 486.4L500 464.4L439 433.6Z" fill="#071b30" stroke="#030511"></path><path d="M324 469.4L350 470.4L315 432.6Z" fill="#0a1e34" stroke="#030511"></path><path d="M546 358.9L572 284L528 288Z" fill="#132743" stroke="#030511"></path><path d="M470 141.6L487 214.3L512 158.4Z" fill="#031526" stroke="#030511"></path><path d="M470 141.6L445 149.4L487 214.3Z" fill="#0d2139" stroke="#030511"></path><path d="M433 492.3L439 433.6L385 458.4Z" fill="#1a2e4d" stroke="#030511"></path><path d="M591 381.7L546 358.9L534 366.7Z" fill="#1a2e4d" stroke="#030511"></path><path d="M286 467.4L324 469.4L315 432.6Z" fill="#0d2139" stroke="#030511"></path><path d="M242 410.6L260 409.6L261 380.7Z" fill="#10243e" stroke="#030511"></path><path d="M261 380.7L260 409.6L303 403.7Z" fill="#031526" stroke="#030511"></path><path d="M363 494.3L385 458.4L350 470.4Z" fill="#162b48" stroke="#030511"></path><path d="M363 494.3L387 492.3L385 458.4Z" fill="#05182b" stroke="#030511"></path><path d="M387 492.3L433 492.3L385 458.4Z" fill="#0a1e34" stroke="#030511"></path><path d="M433 492.3L464 486.4L439 433.6Z" fill="#071b30" stroke="#030511"></path><path d="M322 141.6L308 171.4L360 181.4Z" fill="#1d3152" stroke="#030511"></path><path d="M313 204.3L281 184.4L286 228.3Z" fill="#0a1e34" stroke="#030511"></path><path d="M203 222.3L224 278.1L273 267.1Z" fill="#1d3152" stroke="#030511"></path><path d="M322 141.6L360 181.4L390 160.4Z" fill="#0d2139" stroke="#030511"></path><path d="M210 335.9L234 367.7L291 330.9Z" fill="#0d2139" stroke="#030511"></path><path d="M591 381.7L534 366.7L556 446.6Z" fill="#10243e" stroke="#030511"></path><path d="M546 358.9L586 351.9L572 284Z" fill="#031526" stroke="#030511"></path><path d="M324 469.4L363 494.3L350 470.4Z" fill="#1d3152" stroke="#030511"></path><path d="M450 547.1L464 486.4L433 492.3Z" fill="#10243e" stroke="#030511"></path><path d="M308 171.4L281 184.4L313 204.3Z" fill="#031526" stroke="#030511"></path><path d="M263 284L210 335.9L291 330.9Z" fill="#001122" stroke="#030511"></path><path d="M529 174.4L487 214.3L522 230.3Z" fill="#0a1e34" stroke="#030511"></path><path d="M387 122.6L322 141.6L390 160.4Z" fill="#05182b" stroke="#030511"></path><path d="M579 225.3L522 230.3L557 256.1Z" fill="#1a2e4d" stroke="#030511"></path><path d="M579 225.3L529 174.4L522 230.3Z" fill="#031526" stroke="#030511"></path><path d="M203 222.3L273 267.1L286 228.3Z" fill="#0d2139" stroke="#030511"></path><path d="M234 367.7L242 410.6L261 380.7Z" fill="#05182b" stroke="#030511"></path><path d="M260 409.6L286 467.4L315 432.6Z" fill="#1d3152" stroke="#030511"></path><path d="M529 174.4L512 158.4L487 214.3Z" fill="#05182b" stroke="#030511"></path><path d="M242 410.6L286 467.4L260 409.6Z" fill="#0d2139" stroke="#030511"></path><path d="M319 529.3L359 539.1L363 494.3Z" fill="#031526" stroke="#030511"></path><path d="M556 446.6L534 366.7L508 438.6Z" fill="#10243e" stroke="#030511"></path><path d="M224 278.1L215 300L263 284Z" fill="#001122" stroke="#030511"></path><path d="M234 367.7L194 424.6L242 410.6Z" fill="#132743" stroke="#030511"></path><path d="M600 278.1L557 256.1L572 284Z" fill="#1d3152" stroke="#030511"></path><path d="M600 278.1L579 225.3L557 256.1Z" fill="#001122" stroke="#030511"></path><path d="M600 278.1L572 284L586 351.9Z" fill="#1a2e4d" stroke="#030511"></path><path d="M527 487.4L508 438.6L500 464.4Z" fill="#132743" stroke="#030511"></path><path d="M527 487.4L556 446.6L508 438.6Z" fill="#001122" stroke="#030511"></path><path d="M621 267.1L600 278.1L640 289Z" fill="#162b48" stroke="#030511"></path><path d="M387 122.6L390 160.4L445 149.4Z" fill="#0a1e34" stroke="#030511"></path><path d="M308 171.4L262 140.6L281 184.4Z" fill="#162b48" stroke="#030511"></path><path d="M450 100.7L387 122.6L445 149.4Z" fill="#0d2139" stroke="#030511"></path><path d="M215 300L210 335.9L263 284Z" fill="#031526" stroke="#030511"></path><path d="M450 547.1L484 508.3L464 486.4Z" fill="#1a2e4d" stroke="#030511"></path><path d="M464 486.4L484 508.3L500 464.4Z" fill="#071b30" stroke="#030511"></path><path d="M450 547.1L433 492.3L398 554.1Z" fill="#1a2e4d" stroke="#030511"></path><path d="M484 508.3L527 487.4L500 464.4Z" fill="#1d3152" stroke="#030511"></path><path d="M196 322L200 349.9L210 335.9Z" fill="#0a1e34" stroke="#030511"></path><path d="M210 335.9L200 349.9L234 367.7Z" fill="#001122" stroke="#030511"></path><path d="M215 300L196 322L210 335.9Z" fill="#071b30" stroke="#030511"></path><path d="M169 267.1L196 322L215 300Z" fill="#0a1e34" stroke="#030511"></path><path d="M169 267.1L215 300L224 278.1Z" fill="#001122" stroke="#030511"></path><path d="M552 506.3L574 451.4L556 446.6Z" fill="#071b30" stroke="#030511"></path><path d="M556 446.6L586 447.6L591 381.7Z" fill="#031526" stroke="#030511"></path><path d="M387 122.6L373 106.6L322 141.6Z" fill="#1d3152" stroke="#030511"></path><path d="M386 79.7L373 106.6L387 122.6Z" fill="#132743" stroke="#030511"></path><path d="M512 158.4L484 116.6L470 141.6Z" fill="#001122" stroke="#030511"></path><path d="M470 141.6L450 100.7L445 149.4Z" fill="#001122" stroke="#030511"></path><path d="M532 130.6L484 116.6L512 158.4Z" fill="#001122" stroke="#030511"></path><path d="M532 130.6L512 158.4L529 174.4Z" fill="#1d3152" stroke="#030511"></path><path d="M640 289L600 278.1L586 351.9Z" fill="#001122" stroke="#030511"></path><path d="M600 278.1L621 267.1L579 225.3Z" fill="#1d3152" stroke="#030511"></path><path d="M577 166.4L532 130.6L529 174.4Z" fill="#0d2139" stroke="#030511"></path><path d="M623 384.7L586 351.9L591 381.7Z" fill="#1d3152" stroke="#030511"></path><path d="M597 501.3L586 447.6L574 451.4Z" fill="#132743" stroke="#030511"></path><path d="M574 451.4L586 447.6L556 446.6Z" fill="#031526" stroke="#030511"></path><path d="M484 116.6L450 100.7L470 141.6Z" fill="#0d2139" stroke="#030511"></path><path d="M577 166.4L529 174.4L579 225.3Z" fill="#162b48" stroke="#030511"></path><path d="M484 116.6L493 87.7L450 100.7Z" fill="#0a1e34" stroke="#030511"></path><path d="M586 447.6L623 384.7L591 381.7Z" fill="#1a2e4d" stroke="#030511"></path><path d="M198 197.3L203 222.3L281 184.4Z" fill="#071b30" stroke="#030511"></path><path d="M281 184.4L203 222.3L286 228.3Z" fill="#1d3152" stroke="#030511"></path><path d="M262 140.6L308 171.4L322 141.6Z" fill="#071b30" stroke="#030511"></path><path d="M319 529.3L363 494.3L324 469.4Z" fill="#0a1e34" stroke="#030511"></path><path d="M363 494.3L359 539.1L387 492.3Z" fill="#0a1e34" stroke="#030511"></path><path d="M633 179.4L577 166.4L579 225.3Z" fill="#1d3152" stroke="#030511"></path><path d="M286 467.4L319 529.3L324 469.4Z" fill="#001122" stroke="#030511"></path><path d="M290 544.1L319 529.3L264 532.3Z" fill="#071b30" stroke="#030511"></path><path d="M211 482.4L286 467.4L242 410.6Z" fill="#05182b" stroke="#030511"></path><path d="M315 102.7L262 140.6L322 141.6Z" fill="#132743" stroke="#030511"></path><path d="M398 554.1L433 492.3L387 492.3Z" fill="#031526" stroke="#030511"></path><path d="M546 539.1L552 506.3L527 487.4Z" fill="#162b48" stroke="#030511"></path><path d="M527 487.4L552 506.3L556 446.6Z" fill="#1a2e4d" stroke="#030511"></path><path d="M647 346.9L640 289L586 351.9Z" fill="#1d3152" stroke="#030511"></path><path d="M621 267.1L629 236.3L579 225.3Z" fill="#0a1e34" stroke="#030511"></path><path d="M367 62.9L315 102.7L373 106.6Z" fill="#071b30" stroke="#030511"></path><path d="M373 106.6L315 102.7L322 141.6Z" fill="#05182b" stroke="#030511"></path><path d="M658 240.1L629 236.3L621 267.1Z" fill="#162b48" stroke="#030511"></path><path d="M360 600L398 554.1L359 539.1Z" fill="#05182b" stroke="#030511"></path><path d="M359 539.1L398 554.1L387 492.3Z" fill="#1a2e4d" stroke="#030511"></path><path d="M500 543.1L527 487.4L484 508.3Z" fill="#10243e" stroke="#030511"></path><path d="M661 365.7L647 346.9L623 384.7Z" fill="#10243e" stroke="#030511"></path><path d="M172 404.7L234 367.7L200 349.9Z" fill="#071b30" stroke="#030511"></path><path d="M172 404.7L194 424.6L234 367.7Z" fill="#162b48" stroke="#030511"></path><path d="M450 100.7L386 79.7L387 122.6Z" fill="#10243e" stroke="#030511"></path><path d="M661 365.7L623 384.7L644 424.6Z" fill="#1a2e4d" stroke="#030511"></path><path d="M623 384.7L647 346.9L586 351.9Z" fill="#0a1e34" stroke="#030511"></path><path d="M210 150.4L198 197.3L281 184.4Z" fill="#071b30" stroke="#030511"></path><path d="M203 222.3L169 267.1L224 278.1Z" fill="#1d3152" stroke="#030511"></path><path d="M155 380.7L172 404.7L200 349.9Z" fill="#0a1e34" stroke="#030511"></path><path d="M464 600L500 543.1L450 547.1Z" fill="#1a2e4d" stroke="#030511"></path><path d="M450 547.1L500 543.1L484 508.3Z" fill="#05182b" stroke="#030511"></path><path d="M133 228.3L169 267.1L203 222.3Z" fill="#162b48" stroke="#030511"></path><path d="M532 95.7L493 87.7L484 116.6Z" fill="#1a2e4d" stroke="#030511"></path><path d="M394 47.9L382 66.7L386 79.7Z" fill="#05182b" stroke="#030511"></path><path d="M532 95.7L484 116.6L532 130.6Z" fill="#1a2e4d" stroke="#030511"></path><path d="M633 179.4L586 145.6L577 166.4Z" fill="#001122" stroke="#030511"></path><path d="M577 166.4L586 145.6L532 130.6Z" fill="#071b30" stroke="#030511"></path><path d="M155 380.7L200 349.9L196 322Z" fill="#1a2e4d" stroke="#030511"></path><path d="M394 47.9L386 79.7L436 47.9Z" fill="#1d3152" stroke="#030511"></path><path d="M386 79.7L367 62.9L373 106.6Z" fill="#031526" stroke="#030511"></path><path d="M586 145.6L532 95.7L532 130.6Z" fill="#05182b" stroke="#030511"></path><path d="M211 482.4L242 410.6L194 424.6Z" fill="#0a1e34" stroke="#030511"></path><path d="M264 532.3L319 529.3L286 467.4Z" fill="#031526" stroke="#030511"></path><path d="M319 529.3L322 568.1L359 539.1Z" fill="#071b30" stroke="#030511"></path><path d="M315 102.7L290 90.7L262 140.6Z" fill="#031526" stroke="#030511"></path><path d="M262 140.6L210 150.4L281 184.4Z" fill="#1d3152" stroke="#030511"></path><path d="M312 43.9L290 90.7L315 102.7Z" fill="#071b30" stroke="#030511"></path><path d="M181 465.4L211 482.4L194 424.6Z" fill="#1a2e4d" stroke="#030511"></path><path d="M644 424.6L623 384.7L586 447.6Z" fill="#0a1e34" stroke="#030511"></path><path d="M647 346.9L684 314L640 289Z" fill="#071b30" stroke="#030511"></path><path d="M640 289L658 240.1L621 267.1Z" fill="#10243e" stroke="#030511"></path><path d="M211 482.4L264 532.3L286 467.4Z" fill="#031526" stroke="#030511"></path><path d="M394 47.9L367 62.9L382 66.7Z" fill="#0d2139" stroke="#030511"></path><path d="M382 66.7L367 62.9L386 79.7Z" fill="#071b30" stroke="#030511"></path><path d="M647 479.4L644 424.6L586 447.6Z" fill="#001122" stroke="#030511"></path><path d="M225 108.6L210 150.4L262 140.6Z" fill="#05182b" stroke="#030511"></path><path d="M133 228.3L140 270.1L169 267.1Z" fill="#001122" stroke="#030511"></path><path d="M684 314L665 353.9L710 376.7Z" fill="#05182b" stroke="#030511"></path><path d="M661 365.7L665 353.9L647 346.9Z" fill="#0d2139" stroke="#030511"></path><path d="M500 543.1L546 539.1L527 487.4Z" fill="#031526" stroke="#030511"></path><path d="M552 506.3L597 501.3L574 451.4Z" fill="#10243e" stroke="#030511"></path><path d="M571 559.1L546 539.1L526 600Z" fill="#132743" stroke="#030511"></path><path d="M124 357.9L155 380.7L196 322Z" fill="#0a1e34" stroke="#030511"></path><path d="M172 404.7L181 465.4L194 424.6Z" fill="#162b48" stroke="#030511"></path><path d="M684 314L658 240.1L640 289Z" fill="#1a2e4d" stroke="#030511"></path><path d="M629 236.3L633 179.4L579 225.3Z" fill="#132743" stroke="#030511"></path><path d="M571 559.1L597 501.3L552 506.3Z" fill="#071b30" stroke="#030511"></path><path d="M656 190.4L633 179.4L629 236.3Z" fill="#162b48" stroke="#030511"></path><path d="M574 63.7L548 62.9L532 95.7Z" fill="#132743" stroke="#030511"></path><path d="M337 600L322 568.1L265 600Z" fill="#001122" stroke="#030511"></path><path d="M290 544.1L322 568.1L319 529.3Z" fill="#1d3152" stroke="#030511"></path><path d="M398 554.1L425 600L450 547.1Z" fill="#1a2e4d" stroke="#030511"></path><path d="M128 436.6L181 465.4L172 404.7Z" fill="#001122" stroke="#030511"></path><path d="M211 482.4L230 531.3L264 532.3Z" fill="#0d2139" stroke="#030511"></path><path d="M436 47.9L450 100.7L493 87.7Z" fill="#1d3152" stroke="#030511"></path><path d="M436 47.9L386 79.7L450 100.7Z" fill="#05182b" stroke="#030511"></path><path d="M367 62.9L312 43.9L315 102.7Z" fill="#071b30" stroke="#030511"></path><path d="M502 48.9L436 47.9L493 87.7Z" fill="#05182b" stroke="#030511"></path><path d="M133 228.3L203 222.3L198 197.3Z" fill="#001122" stroke="#030511"></path><path d="M169 267.1L123 289L196 322Z" fill="#0a1e34" stroke="#030511"></path><path d="M726 236.3L666 228.3L658 240.1Z" fill="#162b48" stroke="#030511"></path><path d="M658 240.1L666 228.3L629 236.3Z" fill="#10243e" stroke="#030511"></path><path d="M710 376.7L665 353.9L661 365.7Z" fill="#05182b" stroke="#030511"></path><path d="M665 353.9L684 314L647 346.9Z" fill="#162b48" stroke="#030511"></path><path d="M195 530.3L230 531.3L211 482.4Z" fill="#05182b" stroke="#030511"></path><path d="M264 532.3L265 600L290 544.1Z" fill="#031526" stroke="#030511"></path><path d="M290 90.7L225 108.6L262 140.6Z" fill="#071b30" stroke="#030511"></path><path d="M210 150.4L158 176.4L198 197.3Z" fill="#132743" stroke="#030511"></path><path d="M219 65.7L225 108.6L290 90.7Z" fill="#05182b" stroke="#030511"></path><path d="M666 228.3L656 190.4L629 236.3Z" fill="#05182b" stroke="#030511"></path><path d="M633 179.4L630 146.6L586 145.6Z" fill="#071b30" stroke="#030511"></path><path d="M666 135.6L630 146.6L633 179.4Z" fill="#162b48" stroke="#030511"></path><path d="M360 600L425 600L398 554.1Z" fill="#162b48" stroke="#030511"></path><path d="M225 108.6L193 132.6L210 150.4Z" fill="#071b30" stroke="#030511"></path><path d="M548 62.9L502 48.9L532 95.7Z" fill="#0d2139" stroke="#030511"></path><path d="M532 95.7L502 48.9L493 87.7Z" fill="#162b48" stroke="#030511"></path><path d="M337 600L360 600L322 568.1Z" fill="#071b30" stroke="#030511"></path><path d="M322 568.1L360 600L359 539.1Z" fill="#001122" stroke="#030511"></path><path d="M109 257.1L123 289L140 270.1Z" fill="#0a1e34" stroke="#030511"></path><path d="M140 270.1L123 289L169 267.1Z" fill="#071b30" stroke="#030511"></path><path d="M155 380.7L128 436.6L172 404.7Z" fill="#05182b" stroke="#030511"></path><path d="M123 289L124 357.9L196 322Z" fill="#1a2e4d" stroke="#030511"></path><path d="M193 132.6L158 176.4L210 150.4Z" fill="#1d3152" stroke="#030511"></path><path d="M425 600L464 600L450 547.1Z" fill="#162b48" stroke="#030511"></path><path d="M597 501.3L647 479.4L586 447.6Z" fill="#0d2139" stroke="#030511"></path><path d="M644 424.6L694 423.6L661 365.7Z" fill="#001122" stroke="#030511"></path><path d="M643 497.3L647 479.4L597 501.3Z" fill="#031526" stroke="#030511"></path><path d="M571 559.1L552 506.3L546 539.1Z" fill="#071b30" stroke="#030511"></path><path d="M158 176.4L133 228.3L198 197.3Z" fill="#001122" stroke="#030511"></path><path d="M350 0L367 62.9L394 47.9Z" fill="#0d2139" stroke="#030511"></path><path d="M350 0L312 43.9L367 62.9Z" fill="#031526" stroke="#030511"></path><path d="M411 0L394 47.9L436 47.9Z" fill="#1d3152" stroke="#030511"></path><path d="M265 600L322 568.1L290 544.1Z" fill="#001122" stroke="#030511"></path><path d="M526 600L546 539.1L500 543.1Z" fill="#132743" stroke="#030511"></path><path d="M574 63.7L532 95.7L586 145.6Z" fill="#1d3152" stroke="#030511"></path><path d="M643 497.3L662 466.4L647 479.4Z" fill="#1a2e4d" stroke="#030511"></path><path d="M647 479.4L662 466.4L644 424.6Z" fill="#0a1e34" stroke="#030511"></path><path d="M635 561.1L643 497.3L597 501.3Z" fill="#132743" stroke="#030511"></path><path d="M312 43.9L291 43.9L290 90.7Z" fill="#132743" stroke="#030511"></path><path d="M225 108.6L169 65.7L193 132.6Z" fill="#001122" stroke="#030511"></path><path d="M181 465.4L195 530.3L211 482.4Z" fill="#1d3152" stroke="#030511"></path><path d="M230 531.3L216 563.1L264 532.3Z" fill="#132743" stroke="#030511"></path><path d="M136 535.3L195 530.3L181 465.4Z" fill="#162b48" stroke="#030511"></path><path d="M464 600L516 600L500 543.1Z" fill="#132743" stroke="#030511"></path><path d="M638 64.7L574 63.7L586 145.6Z" fill="#10243e" stroke="#030511"></path><path d="M548 62.9L521 0L502 48.9Z" fill="#10243e" stroke="#030511"></path><path d="M85 390.7L128 436.6L155 380.7Z" fill="#1d3152" stroke="#030511"></path><path d="M725 420.6L694 423.6L732 475.4Z" fill="#1d3152" stroke="#030511"></path><path d="M662 466.4L694 423.6L644 424.6Z" fill="#10243e" stroke="#030511"></path><path d="M133 228.3L109 257.1L140 270.1Z" fill="#0d2139" stroke="#030511"></path><path d="M123 289L100 342.9L124 357.9Z" fill="#0d2139" stroke="#030511"></path><path d="M124 357.9L85 390.7L155 380.7Z" fill="#10243e" stroke="#030511"></path><path d="M70 230.3L109 257.1L133 228.3Z" fill="#132743" stroke="#030511"></path><path d="M516 600L526 600L500 543.1Z" fill="#10243e" stroke="#030511"></path><path d="M571 559.1L635 561.1L597 501.3Z" fill="#132743" stroke="#030511"></path><path d="M694 423.6L710 376.7L661 365.7Z" fill="#132743" stroke="#030511"></path><path d="M684 314L726 236.3L658 240.1Z" fill="#0d2139" stroke="#030511"></path><path d="M722 192.4L666 135.6L656 190.4Z" fill="#0a1e34" stroke="#030511"></path><path d="M72 293L100 342.9L123 289Z" fill="#0d2139" stroke="#030511"></path><path d="M183 577.1L216 563.1L195 530.3Z" fill="#071b30" stroke="#030511"></path><path d="M195 530.3L216 563.1L230 531.3Z" fill="#0a1e34" stroke="#030511"></path><path d="M220 63.9L219 65.7L290 90.7Z" fill="#05182b" stroke="#030511"></path><path d="M103 162.4L116 180.4L158 176.4Z" fill="#1d3152" stroke="#030511"></path><path d="M158 176.4L116 180.4L133 228.3Z" fill="#10243e" stroke="#030511"></path><path d="M656 190.4L666 135.6L633 179.4Z" fill="#162b48" stroke="#030511"></path><path d="M630 146.6L638 64.7L586 145.6Z" fill="#001122" stroke="#030511"></path><path d="M722 192.4L656 190.4L666 228.3Z" fill="#10243e" stroke="#030511"></path><path d="M216 563.1L265 600L264 532.3Z" fill="#001122" stroke="#030511"></path><path d="M291 43.9L220 63.9L290 90.7Z" fill="#0a1e34" stroke="#030511"></path><path d="M140 117.6L158 176.4L193 132.6Z" fill="#0a1e34" stroke="#030511"></path><path d="M432 0L436 47.9L484 0Z" fill="#031526" stroke="#030511"></path><path d="M432 0L411 0L436 47.9Z" fill="#031526" stroke="#030511"></path><path d="M312 43.9L315 0L291 43.9Z" fill="#162b48" stroke="#030511"></path><path d="M291 43.9L278 0L220 63.9Z" fill="#001122" stroke="#030511"></path><path d="M484 0L436 47.9L502 48.9Z" fill="#071b30" stroke="#030511"></path><path d="M140 117.6L193 132.6L169 65.7Z" fill="#162b48" stroke="#030511"></path><path d="M63 388.7L85 390.7L54 344.9Z" fill="#001122" stroke="#030511"></path><path d="M411 0L350 0L394 47.9Z" fill="#05182b" stroke="#030511"></path><path d="M638 64.7L581 43.9L574 63.7Z" fill="#1d3152" stroke="#030511"></path><path d="M574 63.7L581 43.9L548 62.9Z" fill="#0a1e34" stroke="#030511"></path><path d="M758 321L734 329.9L764 359.9Z" fill="#0d2139" stroke="#030511"></path><path d="M710 376.7L734 329.9L684 314Z" fill="#05182b" stroke="#030511"></path><path d="M521 0L484 0L502 48.9Z" fill="#162b48" stroke="#030511"></path><path d="M526 600L575 600L571 559.1Z" fill="#0d2139" stroke="#030511"></path><path d="M643 497.3L675 535.3L662 466.4Z" fill="#031526" stroke="#030511"></path><path d="M82 415.6L113 461.4L128 436.6Z" fill="#162b48" stroke="#030511"></path><path d="M128 436.6L113 461.4L181 465.4Z" fill="#001122" stroke="#030511"></path><path d="M742 255.1L726 236.3L684 314Z" fill="#0d2139" stroke="#030511"></path><path d="M72 293L123 289L109 257.1Z" fill="#0a1e34" stroke="#030511"></path><path d="M100 342.9L85 390.7L124 357.9Z" fill="#071b30" stroke="#030511"></path><path d="M350 0L315 0L312 43.9Z" fill="#0a1e34" stroke="#030511"></path><path d="M734 329.9L740 304L684 314Z" fill="#001122" stroke="#030511"></path><path d="M575 600L635 561.1L571 559.1Z" fill="#071b30" stroke="#030511"></path><path d="M732 475.4L694 423.6L662 466.4Z" fill="#0a1e34" stroke="#030511"></path><path d="M694 423.6L725 420.6L710 376.7Z" fill="#001122" stroke="#030511"></path><path d="M758 321L752 273.1L740 304Z" fill="#071b30" stroke="#030511"></path><path d="M169 65.7L225 108.6L219 65.7Z" fill="#071b30" stroke="#030511"></path><path d="M169 65.7L219 65.7L171 45.9Z" fill="#162b48" stroke="#030511"></path><path d="M70 230.3L133 228.3L116 180.4Z" fill="#1a2e4d" stroke="#030511"></path><path d="M70 230.3L72 293L109 257.1Z" fill="#05182b" stroke="#030511"></path><path d="M581 43.9L521 0L548 62.9Z" fill="#0a1e34" stroke="#030511"></path><path d="M726 236.3L722 192.4L666 228.3Z" fill="#0d2139" stroke="#030511"></path><path d="M666 135.6L638 64.7L630 146.6Z" fill="#132743" stroke="#030511"></path><path d="M768 202.3L722 192.4L726 236.3Z" fill="#1a2e4d" stroke="#030511"></path><path d="M740 304L742 255.1L684 314Z" fill="#0a1e34" stroke="#030511"></path><path d="M85 390.7L82 415.6L128 436.6Z" fill="#071b30" stroke="#030511"></path><path d="M63 388.7L82 415.6L85 390.7Z" fill="#001122" stroke="#030511"></path><path d="M640 48.9L638 64.7L690 79.7Z" fill="#1d3152" stroke="#030511"></path><path d="M581 43.9L584 0L521 0Z" fill="#1a2e4d" stroke="#030511"></path><path d="M140 117.6L103 162.4L158 176.4Z" fill="#162b48" stroke="#030511"></path><path d="M136 535.3L183 577.1L195 530.3Z" fill="#001122" stroke="#030511"></path><path d="M216 563.1L208 600L265 600Z" fill="#162b48" stroke="#030511"></path><path d="M136 535.3L181 465.4L113 461.4Z" fill="#132743" stroke="#030511"></path><path d="M315 0L278 0L291 43.9Z" fill="#132743" stroke="#030511"></path><path d="M697 549.1L675 535.3L665 600Z" fill="#1a2e4d" stroke="#030511"></path><path d="M635 561.1L675 535.3L643 497.3Z" fill="#0a1e34" stroke="#030511"></path><path d="M183 577.1L208 600L216 563.1Z" fill="#05182b" stroke="#030511"></path><path d="M758 321L740 304L734 329.9Z" fill="#0d2139" stroke="#030511"></path><path d="M740 304L752 273.1L742 255.1Z" fill="#1a2e4d" stroke="#030511"></path><path d="M742 255.1L768 202.3L726 236.3Z" fill="#0a1e34" stroke="#030511"></path><path d="M171 45.9L219 65.7L220 63.9Z" fill="#05182b" stroke="#030511"></path><path d="M140 117.6L94 121.6L103 162.4Z" fill="#132743" stroke="#030511"></path><path d="M76 515.3L136 535.3L113 461.4Z" fill="#1a2e4d" stroke="#030511"></path><path d="M183 577.1L165 600L208 600Z" fill="#0a1e34" stroke="#030511"></path><path d="M66 192.3L70 230.3L116 180.4Z" fill="#10243e" stroke="#030511"></path><path d="M764 359.9L734 329.9L710 376.7Z" fill="#031526" stroke="#030511"></path><path d="M54 344.9L100 342.9L72 293Z" fill="#05182b" stroke="#030511"></path><path d="M54 344.9L85 390.7L100 342.9Z" fill="#10243e" stroke="#030511"></path><path d="M82 415.6L69 451.4L113 461.4Z" fill="#1a2e4d" stroke="#030511"></path><path d="M47 277L54 344.9L72 293Z" fill="#10243e" stroke="#030511"></path><path d="M690 79.7L638 64.7L666 135.6Z" fill="#031526" stroke="#030511"></path><path d="M638 64.7L640 48.9L581 43.9Z" fill="#0a1e34" stroke="#030511"></path><path d="M725 420.6L758 391.7L710 376.7Z" fill="#031526" stroke="#030511"></path><path d="M752 438.6L758 391.7L725 420.6Z" fill="#1a2e4d" stroke="#030511"></path><path d="M758 391.7L764 359.9L710 376.7Z" fill="#001122" stroke="#030511"></path><path d="M815 235.1L742 255.1L752 273.1Z" fill="#031526" stroke="#030511"></path><path d="M575 600L631 600L635 561.1Z" fill="#1d3152" stroke="#030511"></path><path d="M747 463.4L732 475.4L734 493.3Z" fill="#10243e" stroke="#030511"></path><path d="M734 493.3L732 475.4L662 466.4Z" fill="#1d3152" stroke="#030511"></path><path d="M202 0L171 45.9L220 63.9Z" fill="#162b48" stroke="#030511"></path><path d="M169 65.7L125 88.7L140 117.6Z" fill="#001122" stroke="#030511"></path><path d="M32 241.1L47 277L70 230.3Z" fill="#05182b" stroke="#030511"></path><path d="M70 230.3L47 277L72 293Z" fill="#0a1e34" stroke="#030511"></path><path d="M640 48.9L584 0L581 43.9Z" fill="#1a2e4d" stroke="#030511"></path><path d="M67 454.4L69 451.4L33 414.6Z" fill="#0d2139" stroke="#030511"></path><path d="M33 414.6L69 451.4L82 415.6Z" fill="#0a1e34" stroke="#030511"></path><path d="M144 29.9L125 88.7L169 65.7Z" fill="#031526" stroke="#030511"></path><path d="M103 162.4L66 192.3L116 180.4Z" fill="#1a2e4d" stroke="#030511"></path><path d="M50 142.6L66 192.3L103 162.4Z" fill="#10243e" stroke="#030511"></path><path d="M747 463.4L752 438.6L725 420.6Z" fill="#031526" stroke="#030511"></path><path d="M828 399.7L813 330.9L764 359.9Z" fill="#132743" stroke="#030511"></path><path d="M33 414.6L82 415.6L63 388.7Z" fill="#001122" stroke="#030511"></path><path d="M69 451.4L67 454.4L113 461.4Z" fill="#0a1e34" stroke="#030511"></path><path d="M734 493.3L662 466.4L675 535.3Z" fill="#1d3152" stroke="#030511"></path><path d="M732 475.4L747 463.4L725 420.6Z" fill="#05182b" stroke="#030511"></path><path d="M737 105.6L690 79.7L666 135.6Z" fill="#031526" stroke="#030511"></path><path d="M640 48.9L647 0L584 0Z" fill="#132743" stroke="#030511"></path><path d="M737 105.6L666 135.6L722 192.4Z" fill="#10243e" stroke="#030511"></path><path d="M665 600L675 535.3L635 561.1Z" fill="#05182b" stroke="#030511"></path><path d="M697 549.1L734 493.3L675 535.3Z" fill="#1d3152" stroke="#030511"></path><path d="M125 88.7L94 121.6L140 117.6Z" fill="#031526" stroke="#030511"></path><path d="M122 562.1L183 577.1L136 535.3Z" fill="#031526" stroke="#030511"></path><path d="M122 562.1L165 600L183 577.1Z" fill="#1d3152" stroke="#030511"></path><path d="M81 539.1L122 562.1L136 535.3Z" fill="#001122" stroke="#030511"></path><path d="M774 189.4L768 202.3L815 235.1Z" fill="#10243e" stroke="#030511"></path><path d="M815 235.1L768 202.3L742 255.1Z" fill="#1d3152" stroke="#030511"></path><path d="M171 45.9L144 29.9L169 65.7Z" fill="#0a1e34" stroke="#030511"></path><path d="M125 88.7L94 69.7L94 121.6Z" fill="#1a2e4d" stroke="#030511"></path><path d="M278 0L202 0L220 63.9Z" fill="#0d2139" stroke="#030511"></path><path d="M631 600L665 600L635 561.1Z" fill="#162b48" stroke="#030511"></path><path d="M697 549.1L712 549.1L734 493.3Z" fill="#1d3152" stroke="#030511"></path><path d="M702 600L712 549.1L697 549.1Z" fill="#132743" stroke="#030511"></path><path d="M734 493.3L759 510.3L747 463.4Z" fill="#031526" stroke="#030511"></path><path d="M29 188.4L32 241.1L70 230.3Z" fill="#132743" stroke="#030511"></path><path d="M0 396.7L63 388.7L54 344.9Z" fill="#001122" stroke="#030511"></path><path d="M0 396.7L33 414.6L63 388.7Z" fill="#031526" stroke="#030511"></path><path d="M29 188.4L70 230.3L66 192.3Z" fill="#1d3152" stroke="#030511"></path><path d="M670 0L655 23.9L697 0Z" fill="#071b30" stroke="#030511"></path><path d="M690 79.7L655 23.9L640 48.9Z" fill="#0d2139" stroke="#030511"></path><path d="M62 495.3L113 461.4L67 454.4Z" fill="#0a1e34" stroke="#030511"></path><path d="M62 495.3L76 515.3L113 461.4Z" fill="#0a1e34" stroke="#030511"></path><path d="M0 324.9L54 344.9L47 277Z" fill="#132743" stroke="#030511"></path><path d="M821 314L752 273.1L758 321Z" fill="#162b48" stroke="#030511"></path><path d="M768 202.3L774 189.4L722 192.4Z" fill="#0d2139" stroke="#030511"></path><path d="M0 493.4L62 495.3L67 454.4Z" fill="#0a1e34" stroke="#030511"></path><path d="M160 0L144 29.9L171 45.9Z" fill="#071b30" stroke="#030511"></path><path d="M763 118.6L737 105.6L722 192.4Z" fill="#05182b" stroke="#030511"></path><path d="M737 105.6L728 88.7L690 79.7Z" fill="#10243e" stroke="#030511"></path><path d="M27 548.1L81 539.1L76 515.3Z" fill="#0d2139" stroke="#030511"></path><path d="M76 515.3L81 539.1L136 535.3Z" fill="#1d3152" stroke="#030511"></path><path d="M122 562.1L123 600L165 600Z" fill="#162b48" stroke="#030511"></path><path d="M670 0L647 0L655 23.9Z" fill="#1a2e4d" stroke="#030511"></path><path d="M655 23.9L647 0L640 48.9Z" fill="#162b48" stroke="#030511"></path><path d="M28 97.7L50 142.6L94 121.6Z" fill="#0a1e34" stroke="#030511"></path><path d="M94 121.6L50 142.6L103 162.4Z" fill="#0a1e34" stroke="#030511"></path><path d="M752 578.1L759 510.3L712 549.1Z" fill="#10243e" stroke="#030511"></path><path d="M712 549.1L759 510.3L734 493.3Z" fill="#1d3152" stroke="#030511"></path><path d="M747 463.4L797 482.4L752 438.6Z" fill="#001122" stroke="#030511"></path><path d="M828 399.7L764 359.9L758 391.7Z" fill="#05182b" stroke="#030511"></path><path d="M764 359.9L813 330.9L758 321Z" fill="#1a2e4d" stroke="#030511"></path><path d="M144 29.9L94 69.7L125 88.7Z" fill="#132743" stroke="#030511"></path><path d="M50 142.6L29 188.4L66 192.3Z" fill="#031526" stroke="#030511"></path><path d="M0 287L0 324.9L47 277Z" fill="#071b30" stroke="#030511"></path><path d="M79 600L123 600L122 562.1Z" fill="#0a1e34" stroke="#030511"></path><path d="M202 0L160 0L171 45.9Z" fill="#1d3152" stroke="#030511"></path><path d="M144 29.9L91 36.9L94 69.7Z" fill="#1a2e4d" stroke="#030511"></path><path d="M815 449.6L758 391.7L752 438.6Z" fill="#001122" stroke="#030511"></path><path d="M737 105.6L774 64.9L728 88.7Z" fill="#10243e" stroke="#030511"></path><path d="M697 0L655 23.9L727 25.9Z" fill="#1a2e4d" stroke="#030511"></path><path d="M774 189.4L763 118.6L722 192.4Z" fill="#071b30" stroke="#030511"></path><path d="M801 177.4L763 118.6L774 189.4Z" fill="#132743" stroke="#030511"></path><path d="M665 600L702 600L697 549.1Z" fill="#0a1e34" stroke="#030511"></path><path d="M0 287L47 277L32 241.1Z" fill="#0a1e34" stroke="#030511"></path><path d="M33 414.6L0 493.4L67 454.4Z" fill="#162b48" stroke="#030511"></path><path d="M0 243.1L0 287L32 241.1Z" fill="#10243e" stroke="#030511"></path><path d="M655 23.9L690 79.7L727 25.9Z" fill="#001122" stroke="#030511"></path><path d="M849 356.9L821 314L813 330.9Z" fill="#001122" stroke="#030511"></path><path d="M813 330.9L821 314L758 321Z" fill="#0a1e34" stroke="#030511"></path><path d="M0 213.3L0 243.1L32 241.1Z" fill="#05182b" stroke="#030511"></path><path d="M0 213.3L32 241.1L29 188.4Z" fill="#1a2e4d" stroke="#030511"></path><path d="M821 314L815 235.1L752 273.1Z" fill="#031526" stroke="#030511"></path><path d="M0 324.9L0 396.7L54 344.9Z" fill="#071b30" stroke="#030511"></path><path d="M52 600L79 600L81 539.1Z" fill="#10243e" stroke="#030511"></path><path d="M829 201.3L801 177.4L774 189.4Z" fill="#132743" stroke="#030511"></path><path d="M160 0L137 0L144 29.9Z" fill="#1a2e4d" stroke="#030511"></path><path d="M0 396.7L0 409.6L33 414.6Z" fill="#0d2139" stroke="#030511"></path><path d="M0 148.4L0 213.3L29 188.4Z" fill="#1a2e4d" stroke="#030511"></path><path d="M0 148.4L29 188.4L50 142.6Z" fill="#05182b" stroke="#030511"></path><path d="M28 97.7L94 121.6L94 69.7Z" fill="#0d2139" stroke="#030511"></path><path d="M819 500.3L797 482.4L759 510.3Z" fill="#071b30" stroke="#030511"></path><path d="M759 510.3L797 482.4L747 463.4Z" fill="#162b48" stroke="#030511"></path><path d="M137 0L91 36.9L144 29.9Z" fill="#071b30" stroke="#030511"></path><path d="M797 482.4L815 449.6L752 438.6Z" fill="#031526" stroke="#030511"></path><path d="M815 449.6L828 399.7L758 391.7Z" fill="#132743" stroke="#030511"></path><path d="M864 227.3L829 201.3L815 235.1Z" fill="#162b48" stroke="#030511"></path><path d="M727 25.9L690 79.7L728 88.7Z" fill="#1a2e4d" stroke="#030511"></path><path d="M727 25.9L728 88.7L774 64.9Z" fill="#001122" stroke="#030511"></path><path d="M797 482.4L819 500.3L815 449.6Z" fill="#001122" stroke="#030511"></path><path d="M702 600L752 578.1L712 549.1Z" fill="#1a2e4d" stroke="#030511"></path><path d="M774 64.9L737 105.6L783 77.7Z" fill="#031526" stroke="#030511"></path><path d="M81 539.1L79 600L122 562.1Z" fill="#0d2139" stroke="#030511"></path><path d="M27 548.1L76 515.3L62 495.3Z" fill="#1a2e4d" stroke="#030511"></path><path d="M864 267.1L815 235.1L821 314Z" fill="#031526" stroke="#030511"></path><path d="M815 235.1L829 201.3L774 189.4Z" fill="#0d2139" stroke="#030511"></path><path d="M801 177.4L796 105.6L763 118.6Z" fill="#031526" stroke="#030511"></path><path d="M37 19.9L28 97.7L94 69.7Z" fill="#162b48" stroke="#030511"></path><path d="M28 97.7L0 148.4L50 142.6Z" fill="#162b48" stroke="#030511"></path><path d="M839 121.6L796 105.6L801 177.4Z" fill="#001122" stroke="#030511"></path><path d="M861 367.7L849 356.9L828 399.7Z" fill="#031526" stroke="#030511"></path><path d="M828 399.7L849 356.9L813 330.9Z" fill="#071b30" stroke="#030511"></path><path d="M0 409.6L0 493.4L33 414.6Z" fill="#001122" stroke="#030511"></path><path d="M0 505.3L27 548.1L62 495.3Z" fill="#001122" stroke="#030511"></path><path d="M783 77.7L737 105.6L763 118.6Z" fill="#10243e" stroke="#030511"></path><path d="M727 25.9L765 0L697 0Z" fill="#0d2139" stroke="#030511"></path><path d="M796 105.6L783 77.7L763 118.6Z" fill="#1a2e4d" stroke="#030511"></path><path d="M0 493.4L0 505.3L62 495.3Z" fill="#162b48" stroke="#030511"></path><path d="M810 566.1L819 500.3L759 510.3Z" fill="#0d2139" stroke="#030511"></path><path d="M850 432.6L861 367.7L828 399.7Z" fill="#1d3152" stroke="#030511"></path><path d="M0 600L52 600L27 548.1Z" fill="#162b48" stroke="#030511"></path><path d="M27 548.1L52 600L81 539.1Z" fill="#001122" stroke="#030511"></path><path d="M702 600L764 600L752 578.1Z" fill="#05182b" stroke="#030511"></path><path d="M752 578.1L810 566.1L759 510.3Z" fill="#1a2e4d" stroke="#030511"></path><path d="M850 432.6L828 399.7L815 449.6Z" fill="#132743" stroke="#030511"></path><path d="M877 291L864 267.1L821 314Z" fill="#1a2e4d" stroke="#030511"></path><path d="M860 465.4L850 432.6L815 449.6Z" fill="#162b48" stroke="#030511"></path><path d="M877 291L821 314L849 356.9Z" fill="#031526" stroke="#030511"></path><path d="M829 201.3L846 154.4L801 177.4Z" fill="#071b30" stroke="#030511"></path><path d="M0 73.7L0 107.6L28 97.7Z" fill="#0a1e34" stroke="#030511"></path><path d="M28 97.7L0 107.6L0 148.4Z" fill="#071b30" stroke="#030511"></path><path d="M0 73.7L28 97.7L37 19.9Z" fill="#071b30" stroke="#030511"></path><path d="M137 0L69 0L91 36.9Z" fill="#10243e" stroke="#030511"></path><path d="M864 267.1L864 227.3L815 235.1Z" fill="#031526" stroke="#030511"></path><path d="M796 105.6L824 83.7L783 77.7Z" fill="#162b48" stroke="#030511"></path><path d="M900 202.3L846 154.4L829 201.3Z" fill="#031526" stroke="#030511"></path><path d="M783 77.7L801 44.9L774 64.9Z" fill="#132743" stroke="#030511"></path><path d="M864 267.1L900 235.1L864 227.3Z" fill="#1d3152" stroke="#030511"></path><path d="M900 351.9L877 291L849 356.9Z" fill="#0d2139" stroke="#030511"></path><path d="M900 287L877 291L900 351.9Z" fill="#031526" stroke="#030511"></path><path d="M0 505.3L0 552.1L27 548.1Z" fill="#132743" stroke="#030511"></path><path d="M764 600L810 566.1L752 578.1Z" fill="#071b30" stroke="#030511"></path><path d="M819 500.3L860 465.4L815 449.6Z" fill="#1a2e4d" stroke="#030511"></path><path d="M900 107.6L839 121.6L846 154.4Z" fill="#162b48" stroke="#030511"></path><path d="M846 154.4L839 121.6L801 177.4Z" fill="#071b30" stroke="#030511"></path><path d="M862 492.3L860 465.4L819 500.3Z" fill="#10243e" stroke="#030511"></path><path d="M900 387.7L900 351.9L861 367.7Z" fill="#001122" stroke="#030511"></path><path d="M37 19.9L94 69.7L91 36.9Z" fill="#1a2e4d" stroke="#030511"></path><path d="M69 0L37 19.9L91 36.9Z" fill="#071b30" stroke="#030511"></path><path d="M69 0L53 0L37 19.9Z" fill="#1d3152" stroke="#030511"></path><path d="M839 121.6L824 83.7L796 105.6Z" fill="#071b30" stroke="#030511"></path><path d="M774 64.9L765 0L727 25.9Z" fill="#10243e" stroke="#030511"></path><path d="M801 44.9L765 0L774 64.9Z" fill="#162b48" stroke="#030511"></path><path d="M824 83.7L801 44.9L783 77.7Z" fill="#05182b" stroke="#030511"></path><path d="M764 600L801 600L810 566.1Z" fill="#132743" stroke="#030511"></path><path d="M849 550.1L862 492.3L819 500.3Z" fill="#071b30" stroke="#030511"></path><path d="M849 550.1L819 500.3L810 566.1Z" fill="#1d3152" stroke="#030511"></path><path d="M900 351.9L849 356.9L861 367.7Z" fill="#05182b" stroke="#030511"></path><path d="M877 291L900 287L864 267.1Z" fill="#10243e" stroke="#030511"></path><path d="M864 227.3L900 202.3L829 201.3Z" fill="#162b48" stroke="#030511"></path><path d="M861 367.7L850 432.6L900 387.7Z" fill="#1d3152" stroke="#030511"></path><path d="M900 387.7L850 432.6L900 418.6Z" fill="#162b48" stroke="#030511"></path><path d="M0 552.1L0 600L27 548.1Z" fill="#001122" stroke="#030511"></path><path d="M900 418.6L850 432.6L860 465.4Z" fill="#0a1e34" stroke="#030511"></path><path d="M867 600L849 550.1L810 566.1Z" fill="#1a2e4d" stroke="#030511"></path><path d="M900 468.4L900 418.6L860 465.4Z" fill="#1a2e4d" stroke="#030511"></path><path d="M900 287L900 235.1L864 267.1Z" fill="#001122" stroke="#030511"></path><path d="M839 121.6L862 65.7L824 83.7Z" fill="#0a1e34" stroke="#030511"></path><path d="M900 468.4L860 465.4L862 492.3Z" fill="#10243e" stroke="#030511"></path><path d="M37 19.9L0 19.9L0 73.7Z" fill="#031526" stroke="#030511"></path><path d="M0 0L0 19.9L37 19.9Z" fill="#001122" stroke="#030511"></path><path d="M900 235.1L900 202.3L864 227.3Z" fill="#071b30" stroke="#030511"></path><path d="M860 0L817 0L801 44.9Z" fill="#071b30" stroke="#030511"></path><path d="M900 516.3L900 468.4L862 492.3Z" fill="#1d3152" stroke="#030511"></path><path d="M53 0L0 0L37 19.9Z" fill="#10243e" stroke="#030511"></path><path d="M900 202.3L900 156.4L846 154.4Z" fill="#1a2e4d" stroke="#030511"></path><path d="M801 44.9L817 0L765 0Z" fill="#1a2e4d" stroke="#030511"></path><path d="M862 65.7L801 44.9L824 83.7Z" fill="#132743" stroke="#030511"></path><path d="M873 62.9L862 65.7L900 107.6Z" fill="#132743" stroke="#030511"></path><path d="M900 577.1L900 516.3L849 550.1Z" fill="#031526" stroke="#030511"></path><path d="M849 550.1L900 516.3L862 492.3Z" fill="#132743" stroke="#030511"></path><path d="M900 107.6L862 65.7L839 121.6Z" fill="#162b48" stroke="#030511"></path><path d="M862 65.7L860 0L801 44.9Z" fill="#132743" stroke="#030511"></path><path d="M900 156.4L900 107.6L846 154.4Z" fill="#1d3152" stroke="#030511"></path><path d="M801 600L867 600L810 566.1Z" fill="#1d3152" stroke="#030511"></path><path d="M900 107.6L900 75.7L873 62.9Z" fill="#001122" stroke="#030511"></path><path d="M873 62.9L860 0L862 65.7Z" fill="#1a2e4d" stroke="#030511"></path><path d="M900 20.9L860 0L873 62.9Z" fill="#071b30" stroke="#030511"></path><path d="M867 600L900 577.1L849 550.1Z" fill="#071b30" stroke="#030511"></path><path d="M867 600L900 600L900 577.1Z" fill="#031526" stroke="#030511"></path><path d="M900 75.7L900 20.9L873 62.9Z" fill="#031526" stroke="#030511"></path><path d="M900 20.9L900 0L860 0Z" fill="#10243e" stroke="#030511"></path></g></svg>